<svg width="51" height="61" viewBox="0 0 51 61" fill="none" xmlns="http://www.w3.org/2000/svg">
<path fill-rule="evenodd" clip-rule="evenodd" d="M22.3916 60.114C10.1154 60.114 0.171875 50.2159 0.171875 37.9988V28.8263C0.171875 16.6091 10.1154 6.71106 22.3916 6.71106C34.6665 6.71106 44.61 16.6091 44.61 28.8263V37.9988C44.61 50.2159 34.6665 60.114 22.3916 60.114Z" fill="#A9E2FF"/>
<path fill-rule="evenodd" clip-rule="evenodd" d="M27.8449 54.6983C15.57 54.6983 5.62646 44.8003 5.62646 32.5831V23.4106C5.62646 11.1935 15.57 1.29541 27.8449 1.29541C40.1211 1.29541 50.0646 11.1935 50.0646 23.4106V32.5831C50.0529 44.8003 40.1067 54.6983 27.8449 54.6983Z" fill="white"/>
<path fill-rule="evenodd" clip-rule="evenodd" d="M19.6967 1.99538C12.3162 1.99538 6.31545 7.9679 6.31545 15.3137V40.6808C6.31545 48.0266 12.3162 53.9991 19.6967 53.9991H35.9678C43.3483 53.9991 49.3491 48.0266 49.3491 40.6808V15.3137C49.3491 7.9679 43.3483 1.99538 35.9678 1.99538H19.6967ZM35.9808 55.3853H19.7098C11.5612 55.3853 4.93567 48.791 4.93567 40.6808V15.3137C4.93567 7.20352 11.5612 0.609131 19.7098 0.609131H35.9808C44.1306 0.609131 50.7549 7.20352 50.7549 15.3137V40.6808C50.7432 48.791 44.1163 55.3853 35.9808 55.3853Z" fill="#00B487"/>
<path fill-rule="evenodd" clip-rule="evenodd" d="M20.556 21.0138L15.2451 26.2997L12.1862 23.2422" fill="white"/>
<path fill-rule="evenodd" clip-rule="evenodd" d="M15.245 26.9861C15.0627 26.9861 14.8805 26.9084 14.7503 26.7789L11.6927 23.7213C11.418 23.4506 11.418 23.0217 11.6927 22.7497C11.9647 22.4789 12.3943 22.4789 12.6689 22.7497L15.245 25.3149L20.0612 20.5213C20.3346 20.2492 20.7641 20.2492 21.0375 20.5213C21.3108 20.7934 21.3108 21.2209 21.0375 21.493L15.7266 26.7789C15.6095 26.9084 15.4272 26.9861 15.245 26.9861Z" fill="#00B487"/>
<path fill-rule="evenodd" clip-rule="evenodd" d="M44.2469 24.2141H25.9439C25.5664 24.2141 25.2553 23.9032 25.2553 23.5275C25.2553 23.1518 25.5664 22.8408 25.9439 22.8408H44.2469C44.6243 22.8408 44.9354 23.1518 44.9354 23.5275C44.9498 23.9032 44.6374 24.2141 44.2469 24.2141Z" fill="#00B487"/>
<path fill-rule="evenodd" clip-rule="evenodd" d="M20.556 34.6045L15.2451 39.8904L12.1862 36.8329" fill="white"/>
<path fill-rule="evenodd" clip-rule="evenodd" d="M15.245 40.5768C15.0627 40.5768 14.8805 40.4991 14.7503 40.3696L11.6927 37.312C11.418 37.04 11.418 36.5995 11.6927 36.3404C11.9647 36.0683 12.3943 36.0683 12.6689 36.3404L15.245 38.9056L20.0612 34.112C20.3346 33.8399 20.7641 33.8399 21.0375 34.112C21.3108 34.3841 21.3108 34.8116 21.0375 35.0837L15.7266 40.3696C15.6095 40.5121 15.4272 40.5768 15.245 40.5768Z" fill="#00B487"/>
<path fill-rule="evenodd" clip-rule="evenodd" d="M37.7384 37.8042H25.9582C25.5807 37.8042 25.2683 37.4933 25.2683 37.1176C25.2683 36.7418 25.5807 36.4309 25.9582 36.4309H37.7384C38.1159 36.4309 38.427 36.7418 38.427 37.1176C38.427 37.4933 38.1159 37.8042 37.7384 37.8042Z" fill="#00B487"/>
<path fill-rule="evenodd" clip-rule="evenodd" d="M6.82373 14.6915H48.9332V9.88501H6.82373V14.6915Z" fill="#00B487"/>
</svg>
