<svg width="52" height="58" viewBox="0 0 52 58" fill="none" xmlns="http://www.w3.org/2000/svg">
<path fill-rule="evenodd" clip-rule="evenodd" d="M19.2257 1.5509H49.2281C49.4868 1.5509 49.6911 1.75237 49.6911 2.00755V44.5834C49.6911 51.0033 44.4206 56.201 37.9108 56.201H3.31888C3.06012 56.201 2.85583 55.9996 2.85583 55.7444V2.00755" fill="white"/>
<path fill-rule="evenodd" clip-rule="evenodd" d="M37.267 57.3396H2.89095C2.24132 57.3396 1.7135 56.8077 1.7135 56.153V1.58527C1.7135 1.18975 2.03831 0.862425 2.4308 0.862425C2.82328 0.862425 3.14809 1.18975 3.14809 1.58527V55.8939H37.267C43.3302 55.8939 48.2565 50.9295 48.2565 44.8194V1.85804H18.6985C18.306 1.85804 17.9812 1.53071 17.9812 1.1352C17.9812 0.739678 18.306 0.412354 18.6985 0.412354H48.5136C49.1633 0.412354 49.6911 0.944256 49.6911 1.59891V44.833C49.6911 51.7205 44.1151 57.3396 37.267 57.3396Z" fill="#00B487"/>
<path fill-rule="evenodd" clip-rule="evenodd" d="M51.9757 25.4603V57.3396H0.571167V25.4603L23.1978 47.3464C25.2572 49.3263 28.528 49.2862 30.5336 47.2527L51.9757 25.4603Z" fill="#A9E2FF"/>
<path fill-rule="evenodd" clip-rule="evenodd" d="M25.4776 49.3698C24.0129 49.3698 22.535 48.8007 21.4165 47.6627L1.92321 27.8284C1.6436 27.5439 1.6436 27.0968 1.92321 26.8123C2.20283 26.5277 2.64223 26.5277 2.92185 26.8123L22.4151 46.6466C24.1061 48.3672 26.8491 48.3672 28.5268 46.6466L41.6288 33.3153C41.9084 33.0308 42.3478 33.0308 42.6274 33.3153C42.907 33.5998 42.907 34.0469 42.6274 34.3314L29.5254 47.6627C28.4202 48.8007 26.9556 49.3698 25.4776 49.3698Z" fill="#00B487"/>
<path fill-rule="evenodd" clip-rule="evenodd" d="M25.7023 8.3822C32.6415 8.3822 38.2678 13.9885 38.2678 20.9062C38.2678 27.8225 32.6415 33.4302 25.7023 33.4302C18.763 33.4302 13.1367 27.8225 13.1367 20.9062C13.1367 13.9885 18.763 8.3822 25.7023 8.3822Z" fill="#00B487"/>
<path fill-rule="evenodd" clip-rule="evenodd" d="M22.9901 17.0242C22.9901 16.1051 23.6769 15.3918 25.0505 15.2546V18.9858C23.3966 18.4508 22.9901 17.9158 22.9901 17.0242ZM26.7465 21.9076C28.4004 22.4151 28.877 22.9775 28.877 23.9103C28.877 24.9254 28.1201 25.5838 26.7465 25.7347V21.9076ZM20.5653 26.1737C21.8688 27.079 23.3546 27.6414 24.9664 27.8061V29.1092C24.9664 29.6168 25.3869 30.0146 25.9055 30.0146C26.4241 30.0146 26.8306 29.6168 26.8306 29.1092V27.8472C29.5638 27.6003 31.4139 26.0639 31.4139 23.7457C31.4139 21.4823 30.0123 20.2066 26.7605 19.411V15.3781C27.4893 15.5427 28.2182 15.8719 28.9751 16.2972C29.1853 16.4206 29.3956 16.4892 29.6058 16.4892C30.2786 16.4892 30.8112 15.9817 30.8112 15.3369C30.8112 14.8294 30.5028 14.5139 30.1805 14.3219C29.1993 13.7183 28.1201 13.3068 26.8446 13.1696V12.7032C26.8446 12.1957 26.4381 11.7979 25.9195 11.7979C25.4009 11.7979 24.9804 12.1957 24.9804 12.7032V13.1422C22.2893 13.3479 20.4672 14.9117 20.4672 17.1476C20.4672 19.5207 21.9249 20.6867 25.0645 21.4823V25.625C23.8872 25.4192 22.892 24.9254 21.8829 24.2121C21.6866 24.0612 21.4343 23.9789 21.168 23.9789C20.4952 23.9789 19.9907 24.4864 19.9907 25.1312C19.9907 25.6113 20.2009 25.9405 20.5653 26.1737Z" fill="white"/>
</svg>
