<svg width="47" height="55" viewBox="0 0 47 55" fill="none" xmlns="http://www.w3.org/2000/svg">
<path fill-rule="evenodd" clip-rule="evenodd" d="M21.7137 8.72693H46.4729C46.6864 8.72693 46.855 8.89423 46.855 9.10614V40.8045C46.855 48.1544 40.8534 54.1091 33.447 54.1091H8.57548C8.36194 54.1091 8.19336 53.9418 8.19336 53.731V9.10614" fill="#A9E2FF"/>
<path fill-rule="evenodd" clip-rule="evenodd" d="M20.5338 19.4117L25.2991 16.2231L30.1992 19.4117V8.7605H20.5338V19.4117Z" fill="#00B487"/>
<path fill-rule="evenodd" clip-rule="evenodd" d="M37.5829 40.5472H15.9482C15.6223 40.5472 15.3525 40.2796 15.3525 39.9561C15.3525 39.6327 15.6223 39.365 15.9482 39.365H37.5829C37.9089 39.365 38.1786 39.6327 38.1786 39.9561C38.1786 40.2796 37.9089 40.5472 37.5829 40.5472Z" fill="#00B487"/>
<path fill-rule="evenodd" clip-rule="evenodd" d="M33.391 45.2208H15.9371C15.6112 45.2208 15.3414 44.9531 15.3414 44.6297C15.3414 44.3063 15.6112 44.0375 15.9371 44.0375H33.391C33.7169 44.0375 33.9867 44.3063 33.9867 44.6297C33.9867 44.9531 33.7282 45.2208 33.391 45.2208Z" fill="#00B487"/>
<path fill-rule="evenodd" clip-rule="evenodd" d="M14.6669 1.41089H39.4261C39.6396 1.41089 39.8082 1.57707 39.8082 1.7901V37.1456C39.8082 42.4768 35.4588 46.7919 30.0866 46.7919H1.53996C1.32642 46.7919 1.15784 46.6257 1.15784 46.4138V1.7901" fill="white"/>
<path fill-rule="evenodd" clip-rule="evenodd" d="M30.0869 47.3834H1.54028C1.00081 47.3834 0.5625 46.9496 0.5625 46.4131V1.79049C0.5625 1.46704 0.832232 1.19825 1.15816 1.19825C1.48408 1.19825 1.75382 1.46704 1.75382 1.79049V46.2023H30.0869C35.1219 46.2023 39.2129 42.1414 39.2129 37.146V2.01355H14.6672C14.3413 2.01355 14.0716 1.74587 14.0716 1.42132C14.0716 1.09788 14.3413 0.8302 14.6672 0.8302H39.4264C39.9659 0.8302 40.4042 1.26629 40.4042 1.80052V37.1571C40.4042 42.7883 35.7738 47.3834 30.0869 47.3834Z" fill="#00B487"/>
<path fill-rule="evenodd" clip-rule="evenodd" d="M30.5478 33.2312H8.91304C8.58712 33.2312 8.31738 32.9635 8.31738 32.6401C8.31738 32.3166 8.58712 32.0479 8.91304 32.0479H30.5478C30.8737 32.0479 31.1435 32.3166 31.1435 32.6401C31.1435 32.9635 30.8737 33.2312 30.5478 33.2312Z" fill="#00B487"/>
<path fill-rule="evenodd" clip-rule="evenodd" d="M26.3557 37.9037H8.90181C8.57588 37.9037 8.30615 37.636 8.30615 37.3125C8.30615 36.9891 8.57588 36.7214 8.90181 36.7214H26.3557C26.6817 36.7214 26.9514 36.9891 26.9514 37.3125C26.9514 37.636 26.6817 37.9037 26.3557 37.9037Z" fill="#00B487"/>
<path fill-rule="evenodd" clip-rule="evenodd" d="M14.8134 13.5901H7.92403C7.5981 13.5901 7.32837 13.3224 7.32837 12.9989C7.32837 12.6755 7.5981 12.4078 7.92403 12.4078H14.8134C15.1394 12.4078 15.4091 12.6755 15.4091 12.9989C15.4091 13.3224 15.1394 13.5901 14.8134 13.5901Z" fill="#00B487"/>
<path fill-rule="evenodd" clip-rule="evenodd" d="M11.3627 20.5717C11.0368 20.5717 10.7671 20.3041 10.7671 19.9806V12.9876C10.7671 12.6642 11.0368 12.3965 11.3627 12.3965C11.6887 12.3965 11.9584 12.6642 11.9584 12.9876V19.9806C11.9696 20.3163 11.6999 20.5717 11.3627 20.5717Z" fill="#00B487"/>
<path fill-rule="evenodd" clip-rule="evenodd" d="M25.4563 20.5717C25.3102 20.5717 25.1529 20.5159 25.0405 20.4055C24.8045 20.1713 24.8045 19.8032 25.0293 19.569L31.9186 12.5749C32.1547 12.3407 32.5255 12.3407 32.7616 12.5638C32.9976 12.798 32.9976 13.166 32.7728 13.4002L25.8834 20.3933C25.7598 20.5159 25.6024 20.5717 25.4563 20.5717Z" fill="#00B487"/>
<path fill-rule="evenodd" clip-rule="evenodd" d="M32.413 20.5053C32.2669 20.5053 32.1096 20.4495 31.9972 20.338L24.9616 13.5011C24.7256 13.2669 24.7256 12.8988 24.9504 12.6646C25.1864 12.4304 25.5573 12.4304 25.7933 12.6535L32.8289 19.4903C33.0649 19.7245 33.0649 20.0926 32.8401 20.3268C32.7277 20.4372 32.5704 20.5053 32.413 20.5053Z" fill="#00B487"/>
<path fill-rule="evenodd" clip-rule="evenodd" d="M15.7908 19.9803L19.2411 12.9984L22.6802 19.9803" fill="white"/>
<path fill-rule="evenodd" clip-rule="evenodd" d="M15.7908 20.5718C15.7009 20.5718 15.611 20.5495 15.5323 20.516C15.2401 20.371 15.1165 20.0141 15.2626 19.7241L18.7017 12.7311C18.8028 12.5303 19.0051 12.3965 19.2412 12.3965C19.4659 12.3965 19.6795 12.5303 19.7806 12.7311L23.2197 19.7241C23.3658 20.0141 23.2422 20.371 22.95 20.516C22.6578 20.661 22.2981 20.5383 22.152 20.2483L19.2524 14.3483L16.3415 20.2483C16.2291 20.4602 16.0156 20.5718 15.7908 20.5718Z" fill="#00B487"/>
<path fill-rule="evenodd" clip-rule="evenodd" d="M21.5792 19.0882H16.8927C16.5667 19.0882 16.297 18.8217 16.297 18.4982C16.297 18.1748 16.5667 17.906 16.8927 17.906H21.5792C21.9052 17.906 22.1749 18.1748 22.1749 18.4982C22.1749 18.8217 21.9164 19.0882 21.5792 19.0882Z" fill="#00B487"/>
</svg>
