<svg width="58" height="56" viewBox="0 0 58 56" fill="none" xmlns="http://www.w3.org/2000/svg">
<path fill-rule="evenodd" clip-rule="evenodd" d="M2.48006 28.1938C0.377094 29.3026 0.459794 30.936 2.66909 31.8303L9.20246 34.4414C11.4118 35.3237 14.7552 34.8468 16.6337 33.3683L45.0368 10.7625C46.9023 9.27209 47.1043 9.49863 45.4845 11.2513L23.0253 35.5025C21.3949 37.2552 21.8793 39.3894 24.0886 40.2598L24.8566 40.5578C27.0777 41.4163 30.6929 42.8709 32.8904 43.777L40.1444 46.7578C42.3419 47.6639 44.1507 48.415 44.1507 48.427C44.1507 48.4389 44.1613 48.4866 44.1731 48.4866C44.1849 48.4866 44.7048 46.6028 45.3321 44.2897L56.3892 3.27486C57.0154 0.961816 55.7985 -0.0277871 53.6955 1.09297L2.48006 28.1938Z" fill="white"/>
<path fill-rule="evenodd" clip-rule="evenodd" d="M46.5596 9.12902C46.7369 9.12902 46.9023 9.20056 47.044 9.35556C47.5402 9.90401 46.985 10.5598 45.9571 11.6805L23.4979 35.9317C22.8599 36.6233 22.5894 37.3863 22.7418 38.066C22.8954 38.7575 23.4625 39.3179 24.3249 39.6636L25.0928 39.9617C27.2903 40.8201 30.9055 42.2747 33.1267 43.1809L40.3807 46.1616C42.1292 46.877 43.1571 47.3062 43.7833 47.5685C43.9841 46.8651 44.3149 45.6489 44.7284 44.0989L55.7867 3.0841C56.0112 2.26142 55.9639 1.60566 55.6804 1.3672C55.385 1.12874 54.747 1.23605 54.0027 1.6295L2.78724 28.7303C2.0193 29.1357 1.58217 29.6245 1.59375 30.0299C1.61761 30.4472 2.102 30.8884 2.9172 31.2103L9.45057 33.8214C11.4472 34.6202 14.565 34.1672 16.2557 32.8318L44.6575 10.2259C45.5082 9.58209 46.0989 9.12902 46.5596 9.12902ZM44.1849 49.1185C44.1141 49.1185 44.0432 49.1066 43.9841 49.0827C43.9014 49.0589 43.8305 48.9993 43.7596 48.9397C43.3225 48.7489 41.8339 48.1289 39.9199 47.3539L32.6659 44.3732C30.4448 43.467 26.8296 42.0124 24.6439 41.154L23.876 40.8559C22.6118 40.3552 21.773 39.4729 21.5131 38.364C21.265 37.2552 21.643 36.0867 22.5764 35.0733L42.3419 13.7193L17.0354 33.8572C15.0033 35.4668 11.3881 35.9914 8.9898 35.0256L2.44462 32.4145C0.672457 31.6991 0.365282 30.6737 0.329839 30.1253C0.30621 29.5768 0.507055 28.5157 2.1847 27.6334L53.4002 0.532594C55.0896 -0.361625 56.0348 0.0675999 56.4601 0.401442C56.8736 0.735283 57.4998 1.58181 56.9918 3.44179L45.9335 44.4566C44.7414 48.9039 44.7414 48.9039 44.4685 49.047C44.3976 49.0947 44.2913 49.1185 44.1849 49.1185Z" fill="#00B487"/>
<path fill-rule="evenodd" clip-rule="evenodd" d="M20.4382 55.0443C20.3083 55.4377 24.9159 48.3197 24.9159 48.3197C26.2155 46.3167 25.483 43.9202 23.2725 43.014L18.2514 40.9394C16.0551 40.0333 15.0024 41.0944 15.9133 43.3121C15.9133 43.3121 20.567 54.6389 20.4382 55.0443Z" fill="#A9E2FF"/>
</svg>
