<svg width="48" height="55" viewBox="0 0 48 55" fill="none" xmlns="http://www.w3.org/2000/svg">
<path fill-rule="evenodd" clip-rule="evenodd" d="M14.4622 8.9043H39.2214C39.4349 8.9043 39.6035 9.07386 39.6035 9.28863V45.122C39.6035 50.5253 35.2541 54.8999 29.8819 54.8999H1.33525C1.12171 54.8999 0.953125 54.7303 0.953125 54.5156V9.28863" fill="#A9E2FF"/>
<path fill-rule="evenodd" clip-rule="evenodd" d="M13.2823 19.7335L18.0476 16.4893L22.9477 19.7335V8.927H13.2823V19.7335Z" fill="#00B487"/>
<path fill-rule="evenodd" clip-rule="evenodd" d="M30.3316 41.143H8.69679C8.37087 41.143 8.10114 40.8717 8.10114 40.5439C8.10114 40.2161 8.37087 39.9448 8.69679 39.9448H30.3316C30.6575 39.9448 30.9272 40.2161 30.9272 40.5439C30.9272 40.883 30.6575 41.143 30.3316 41.143Z" fill="#00B487"/>
<path fill-rule="evenodd" clip-rule="evenodd" d="M26.1395 45.8903H8.68556C8.35964 45.8903 8.0899 45.6191 8.0899 45.2912C8.0899 44.9634 8.35964 44.6921 8.68556 44.6921H26.1395C26.4654 44.6921 26.7351 44.9634 26.7351 45.2912C26.7351 45.6191 26.4766 45.8903 26.1395 45.8903Z" fill="#00B487"/>
<path fill-rule="evenodd" clip-rule="evenodd" d="M22.0035 1.47729H46.7626C46.9762 1.47729 47.1448 1.64685 47.1448 1.86163V37.695C47.1448 43.0983 42.7953 47.4729 37.4232 47.4729H8.87651C8.66297 47.4729 8.49438 47.3033 8.49438 47.0886V1.86163" fill="white"/>
<path fill-rule="evenodd" clip-rule="evenodd" d="M37.4121 48.072H8.86547C8.32601 48.072 7.8877 47.6312 7.8877 47.0886V1.86166C7.8877 1.53385 8.15743 1.26256 8.48335 1.26256C8.80928 1.26256 9.07901 1.53385 9.07901 1.86166V46.8738H37.4121C42.4471 46.8738 46.5381 42.7592 46.5381 37.695V2.08774H21.9924C21.6665 2.08774 21.3968 1.81645 21.3968 1.48863C21.3968 1.16082 21.6665 0.889526 21.9924 0.889526H46.7516C47.2911 0.889526 47.7294 1.33038 47.7294 1.87297V37.7064C47.7406 43.4148 43.1102 48.072 37.4121 48.072Z" fill="#00B487"/>
<path fill-rule="evenodd" clip-rule="evenodd" d="M21.363 12.205L26.1395 8.9608L31.0284 12.205V1.40979H21.363V12.205Z" fill="#00B487"/>
<path fill-rule="evenodd" clip-rule="evenodd" d="M37.8728 33.7278H16.2381C15.9121 33.7278 15.6424 33.4565 15.6424 33.1287C15.6424 32.8008 15.9121 32.5295 16.2381 32.5295H37.8728C38.1987 32.5295 38.4685 32.8008 38.4685 33.1287C38.4685 33.4565 38.21 33.7278 37.8728 33.7278Z" fill="#00B487"/>
<path fill-rule="evenodd" clip-rule="evenodd" d="M33.6807 38.4751H16.2268C15.9009 38.4751 15.6312 38.2038 15.6312 37.876C15.6312 37.5481 15.9009 37.2769 16.2268 37.2769H33.6807C34.0067 37.2769 34.2764 37.5481 34.2764 37.876C34.2876 38.2038 34.0179 38.4751 33.6807 38.4751Z" fill="#00B487"/>
</svg>
