<svg width="55" height="59" viewBox="0 0 55 59" fill="none" xmlns="http://www.w3.org/2000/svg">
<path fill-rule="evenodd" clip-rule="evenodd" d="M31.0525 53.857C29.9333 53.9983 28.7816 54.0744 27.6189 54.0744C13.0047 54.0744 1.16113 42.2245 1.16113 27.6023C1.16113 12.9801 13.0047 1.13013 27.6189 1.13013C42.2332 1.13013 54.0757 12.9801 54.0757 27.6023C54.0757 30.6463 53.5661 33.5816 52.6099 36.3103" fill="white"/>
<path fill-rule="evenodd" clip-rule="evenodd" d="M27.619 54.6505C27.3039 54.6505 27.0322 54.3896 27.0322 54.0743C27.0322 53.7591 27.2821 53.4981 27.5972 53.4981C28.749 53.4981 29.879 53.422 30.9873 53.2807C31.3024 53.2372 31.5958 53.4655 31.6392 53.7808C31.6827 54.0961 31.4545 54.3896 31.1394 54.4331C29.9768 54.5744 28.7925 54.6505 27.619 54.6505Z" fill="#00B487"/>
<mask id="mask0" mask-type="alpha" maskUnits="userSpaceOnUse" x="0" y="0" width="54" height="52">
<path d="M0.681274 0.968994H53.7614V51.8563H0.681274V0.968994Z" fill="white"/>
</mask>
<g mask="url(#mask0)">
<path fill-rule="evenodd" clip-rule="evenodd" d="M16.0466 4.38033C15.8303 4.38033 15.6228 4.26074 15.5261 4.05419C15.3849 3.77153 15.5033 3.42364 15.7977 3.28231C18.0578 2.18428 20.4482 1.40154 22.9245 0.977546C23.2396 0.923188 23.5439 1.12975 23.5982 1.44502C23.6525 1.7603 23.4472 2.0647 23.132 2.11906C20.7633 2.53217 18.4696 3.28231 16.3073 4.32597C16.2204 4.35859 16.1335 4.38033 16.0466 4.38033ZM41.8307 5.85886C41.7231 5.85886 41.6134 5.82624 41.5156 5.77189C39.4837 4.47817 37.29 3.47799 34.9962 2.79309C34.692 2.70612 34.5181 2.37997 34.6051 2.07557C34.692 1.77117 35.019 1.59722 35.3222 1.68419C37.7235 2.40171 40.0172 3.44538 42.136 4.80432C42.4077 4.97826 42.4826 5.33702 42.3088 5.59794C42.2001 5.76101 42.0154 5.85886 41.8307 5.85886ZM3.01977 18.4481C2.94262 18.4481 2.87851 18.4372 2.80246 18.4046C2.508 18.285 2.35588 17.948 2.47649 17.6545C3.39898 15.3279 4.64961 13.1319 6.18058 11.1315C6.37725 10.8815 6.73581 10.8271 6.9955 11.0228C7.24541 11.2185 7.29974 11.5773 7.10525 11.8382C5.6373 13.7516 4.44208 15.8498 3.56305 18.0784C3.46417 18.3067 3.24795 18.4481 3.01977 18.4481ZM53.1744 21.329C52.9245 21.329 52.6866 21.1551 52.6203 20.905C52.002 18.5894 51.0567 16.3607 49.8169 14.306C49.655 14.0342 49.742 13.6755 50.0136 13.5124C50.2853 13.3493 50.6438 13.4363 50.8057 13.7081C52.0998 15.8607 53.0875 18.1872 53.7394 20.6115C53.8275 20.9159 53.6427 21.2421 53.3276 21.3182C53.2733 21.3182 53.2179 21.329 53.1744 21.329ZM2.89916 37.6254C2.67098 37.6254 2.4428 37.4841 2.35588 37.2558C1.4649 34.9076 0.90097 32.4506 0.682571 29.9501C0.661926 29.6349 0.890104 29.3522 1.20521 29.3196C1.52031 29.287 1.80282 29.5262 1.83433 29.8523C2.04077 32.2549 2.57428 34.6031 3.43266 36.8427C3.54023 37.1362 3.39898 37.4732 3.09474 37.5928C3.04041 37.6146 2.96435 37.6254 2.89916 37.6254ZM15.7641 51.8562C15.6771 51.8562 15.5902 51.8345 15.5033 51.791C13.265 50.6604 11.1896 49.2362 9.34248 47.5294C9.10343 47.312 9.09366 46.9423 9.31097 46.714C9.52719 46.4748 9.89771 46.464 10.1259 46.6814C11.897 48.3121 13.8854 49.6819 16.0248 50.7582C16.3073 50.8996 16.428 51.2474 16.2867 51.5301C16.177 51.7367 15.9716 51.8562 15.7641 51.8562Z" fill="#00B487"/>
</g>
<path fill-rule="evenodd" clip-rule="evenodd" d="M52.6099 36.8974C52.5447 36.8974 52.4795 36.8865 52.4143 36.8647C52.1101 36.756 51.9579 36.4299 52.0557 36.1255C52.4252 35.0601 52.7294 33.962 52.9576 32.8532C53.0228 32.5379 53.327 32.3422 53.6421 32.4074C53.9572 32.4726 54.1528 32.7771 54.0876 33.0923C53.8486 34.2556 53.5335 35.3971 53.1423 36.506C53.0662 36.7452 52.8489 36.8974 52.6099 36.8974Z" fill="#00B487"/>
<path fill-rule="evenodd" clip-rule="evenodd" d="M45.0474 40.137C50.0695 40.137 54.1419 44.2116 54.1419 49.2364C54.1419 54.2623 50.0695 58.3359 45.0474 58.3359C40.0242 58.3359 35.9529 54.2623 35.9529 49.2364C35.9529 44.2116 40.0242 40.137 45.0474 40.137Z" fill="#A9E2FF"/>
<path fill-rule="evenodd" clip-rule="evenodd" d="M27.3143 12.4799V28.0805L34.1923 34.9622" fill="white"/>
<path fill-rule="evenodd" clip-rule="evenodd" d="M34.1924 35.5489C34.0403 35.5489 33.899 35.4945 33.7795 35.3749L26.9015 28.4933C26.7929 28.3845 26.7277 28.2323 26.7277 28.0801V12.4795C26.7277 12.1642 26.9884 11.9033 27.3035 11.9033C27.6186 11.9033 27.8794 12.1642 27.8794 12.4795V27.841L34.5944 34.5487C34.8226 34.777 34.8226 35.1358 34.5944 35.3641C34.4868 35.4945 34.3456 35.5489 34.1924 35.5489Z" fill="#00B487"/>
<path fill-rule="evenodd" clip-rule="evenodd" d="M27.6189 24.558C29.3053 24.558 30.6722 25.9256 30.6722 27.6129C30.6722 29.3001 29.3053 30.6678 27.6189 30.6678C25.9326 30.6678 24.5657 29.3001 24.5657 27.6129C24.5657 25.9256 25.9326 24.558 27.6189 24.558Z" fill="#00B487"/>
<path fill-rule="evenodd" clip-rule="evenodd" d="M44.3088 52.378C44.1556 52.378 44.0046 52.3128 43.8959 52.204L41.3425 49.6384C41.1143 49.4101 41.1143 49.0513 41.3425 48.823C41.5696 48.5947 41.9293 48.5947 42.1574 48.823L44.3088 50.9756L48.328 46.9531C48.5562 46.7248 48.9147 46.7248 49.1429 46.9531C49.3711 47.1814 49.3711 47.5401 49.1429 47.7685L44.7108 52.204C44.612 52.3236 44.4609 52.378 44.3088 52.378Z" fill="#00B487"/>
</svg>
