<svg width="50" height="64" viewBox="0 0 50 64" fill="none" xmlns="http://www.w3.org/2000/svg">
<path fill-rule="evenodd" clip-rule="evenodd" d="M22.2998 0.743896H38.0773C44.3908 0.743896 49.4987 5.85691 49.4987 12.148V50.1495L44.3665 55.809L39.233 50.1495L33.6981 55.809L28.2593 50.1495L22.8229 55.809L17.5921 50.1495L12.1545 55.809L7.6767 50.1495V1.14468" fill="#A9E2FF"/>
<path fill-rule="evenodd" clip-rule="evenodd" d="M15.342 7.58142H31.1195C37.4317 7.58142 42.5409 12.6944 42.5409 18.9855V56.987L37.4086 62.6465L32.2752 56.987L26.739 62.6465L21.3014 56.987L15.8651 62.6465L10.6343 56.987L5.19546 62.6465L0.718872 56.987V7.9822" fill="white"/>
<path fill-rule="evenodd" clip-rule="evenodd" d="M37.4079 63.2905C37.2255 63.2905 37.0551 63.2176 36.9347 63.084L32.2623 57.9346L27.203 63.1083C27.0801 63.2297 26.8855 63.3026 26.7395 63.3026C26.5692 63.3026 26.3989 63.2297 26.2773 63.1083L21.3019 57.9346L16.3266 63.1083C16.2062 63.2297 16.0347 63.3026 15.8644 63.3026H15.8534C15.6697 63.3026 15.5006 63.2298 15.3778 63.0962L10.6092 57.9467L5.64607 63.1083C5.51347 63.2419 5.32979 63.3148 5.14732 63.3026C4.96485 63.2905 4.78238 63.2055 4.6729 63.0597L0.196311 57.4002C0.111159 57.2909 0.0625 57.1451 0.0625 56.9994V7.9946C0.0625 7.64239 0.354451 7.35091 0.707226 7.35091C1.06 7.35091 1.35195 7.64239 1.35195 7.9946V56.7686L5.2203 61.6631L10.147 56.5379C10.2686 56.4164 10.4389 56.3436 10.6092 56.3436H10.6214C10.8039 56.3436 10.9742 56.4164 11.0958 56.55L15.8644 61.6995L20.8275 56.5379C21.072 56.2828 21.5209 56.2828 21.7642 56.5379L26.7395 61.7116L31.8122 56.5257C31.9338 56.4043 32.1163 56.3436 32.2866 56.3314C32.4691 56.3314 32.6394 56.4164 32.7489 56.5379L37.4079 61.6631L41.8967 56.7201V18.9615C41.8967 13.0226 37.0551 8.20106 31.1188 8.20106H15.3425C14.9897 8.20106 14.6966 7.90958 14.6966 7.55738C14.6966 7.20517 14.9897 6.9137 15.3425 6.9137H31.1188C37.7729 6.9137 43.1983 12.3182 43.1983 18.9736V56.9751C43.1983 57.133 43.1375 57.2909 43.028 57.4123L37.8945 63.0719C37.7607 63.2176 37.5916 63.2905 37.4079 63.2905Z" fill="#00B487"/>
<path fill-rule="evenodd" clip-rule="evenodd" d="M19.2825 21.7912C19.2825 20.9775 19.8786 20.3459 21.0719 20.2245V23.5279C19.6353 23.0542 19.2825 22.5806 19.2825 21.7912ZM22.5438 26.1269C23.978 26.5763 24.3916 27.0742 24.3916 27.9001C24.3916 28.7988 23.7347 29.3817 22.5438 29.5153V26.1269ZM17.1792 29.8918C18.3093 30.6934 19.6 31.1913 20.9977 31.3371V32.4909C20.9977 32.9402 21.3626 33.2924 21.8127 33.2924C22.2628 33.2924 22.6156 32.9402 22.6156 32.4909V31.3735C24.9877 31.1549 26.5947 29.7947 26.5947 27.7422C26.5947 25.7383 25.3782 24.6088 22.5548 23.9044V20.3338C23.1873 20.4795 23.8199 20.771 24.478 21.1475C24.6593 21.2568 24.8417 21.3175 25.0254 21.3175C25.6081 21.3175 26.0704 20.8681 26.0704 20.2973C26.0704 19.848 25.8027 19.5686 25.5229 19.3986C24.6726 18.8642 23.7347 18.4999 22.6278 18.3784V17.9655C22.6278 17.5161 22.275 17.1639 21.8249 17.1639C21.376 17.1639 21.0099 17.5161 21.0099 17.9655V18.3541C18.6743 18.5363 17.0929 19.9208 17.0929 21.9005C17.0929 24.0015 18.358 25.0339 21.0829 25.7383V29.406C20.0622 29.2239 19.1986 28.7866 18.3215 28.1551C18.1512 28.0215 17.9334 27.9486 17.7011 27.9486C17.1184 27.9486 16.6793 28.398 16.6793 28.9688C16.6793 29.3939 16.8629 29.6854 17.1792 29.8918Z" fill="#00B487"/>
<path fill-rule="evenodd" clip-rule="evenodd" d="M33.3335 41.0042H9.91658C9.5638 41.0042 9.27185 40.7127 9.27185 40.3605C9.27185 40.0083 9.5638 39.7168 9.91658 39.7168H33.3335C33.6851 39.7168 33.977 40.0083 33.977 40.3605C33.9892 40.7127 33.6985 41.0042 33.3335 41.0042Z" fill="#00B487"/>
<path fill-rule="evenodd" clip-rule="evenodd" d="M31.0705 46.093H12.1788C11.8261 46.093 11.5329 45.8015 11.5329 45.4493C11.5329 45.0971 11.8261 44.8057 12.1788 44.8057H31.0705C31.4233 44.8057 31.7152 45.0971 31.7152 45.4493C31.7152 45.8015 31.4233 46.093 31.0705 46.093Z" fill="#00B487"/>
</svg>
