<svg width="60" height="51" viewBox="0 0 60 51" fill="none" xmlns="http://www.w3.org/2000/svg">
<path fill-rule="evenodd" clip-rule="evenodd" d="M1.20428 18.2834V49.3095C1.20428 49.5785 1.4174 49.7883 1.68734 49.7883H46.7254C53.5166 49.7883 59.015 44.338 59.015 37.6075V1.82113C59.015 1.55213 58.8018 1.34229 58.5333 1.34229H1.68734" fill="white"/>
<path fill-rule="evenodd" clip-rule="evenodd" d="M46.7116 50.5353H1.67356C0.991596 50.5353 0.4375 49.9861 0.4375 49.31V18.284C0.4375 17.8756 0.778482 17.5376 1.1905 17.5376C1.60252 17.5376 1.9435 17.8756 1.9435 18.284V49.0425H46.6974C53.0624 49.0425 58.234 43.916 58.234 37.6066V2.10199H1.65935C1.24733 2.10199 0.90635 1.76398 0.90635 1.35556C0.90635 0.947136 1.24733 0.609131 1.65935 0.609131H58.5039C59.1859 0.609131 59.74 1.15839 59.74 1.8344V37.6066C59.7542 44.7329 53.9007 50.5353 46.7116 50.5353Z" fill="#00B487"/>
<path fill-rule="evenodd" clip-rule="evenodd" d="M7.44238 34.5913H18.7928V10.031H7.44238V34.5913Z" fill="#A9E2FF"/>
<path fill-rule="evenodd" clip-rule="evenodd" d="M24.6904 24.9314H36.0423V10.031H24.6904V24.9314Z" fill="white"/>
<path fill-rule="evenodd" clip-rule="evenodd" d="M25.4435 24.1851H35.2751V10.7775H25.4435V24.1851ZM36.0423 25.6779H24.6905C24.2784 25.6779 23.936 25.3399 23.936 24.9315V10.0311C23.936 9.62267 24.2784 9.28467 24.6905 9.28467H36.0423C36.4543 9.28467 36.7939 9.62267 36.7939 10.0311V24.9315C36.7939 25.3399 36.4543 25.6779 36.0423 25.6779Z" fill="#00B487"/>
<path fill-rule="evenodd" clip-rule="evenodd" d="M41.4681 29.2691H52.82V10.031H41.4681V29.2691Z" fill="white"/>
<path fill-rule="evenodd" clip-rule="evenodd" d="M42.2211 28.5086H52.0528V10.7774H42.2211V28.5086ZM52.8072 30.0015H41.4539C41.0419 30.0015 40.7009 29.6635 40.7009 29.2551V10.0169C40.7009 9.60851 41.0419 9.27051 41.4539 9.27051H52.8072C53.2192 9.27051 53.5602 9.60851 53.5602 10.0169V29.2551C53.5602 29.6776 53.232 30.0015 52.8072 30.0015Z" fill="#00B487"/>
<path fill-rule="evenodd" clip-rule="evenodd" d="M7.44238 17.4812H18.7928V10.031H7.44238V17.4812Z" fill="#00B487"/>
<path fill-rule="evenodd" clip-rule="evenodd" d="M24.6904 14.5518H36.0423V10.031H24.6904V14.5518Z" fill="#00B487"/>
<path fill-rule="evenodd" clip-rule="evenodd" d="M41.4681 15.8616H52.82V10.031H41.4681V15.8616Z" fill="#00B487"/>
</svg>
