<svg width="56" height="49" viewBox="0 0 56 49" fill="none" xmlns="http://www.w3.org/2000/svg">
<path fill-rule="evenodd" clip-rule="evenodd" d="M47.2569 16.5597H26.2538L22.7451 9.4529H3.50875C2.58144 9.44959 1.69082 9.82077 1.0328 10.4848C0.37478 11.1488 0.0032709 12.0513 0 12.9938V45.0495C0 47.0051 1.55986 48.5904 3.48404 48.5904H47.2816C48.2056 48.5904 49.0918 48.2173 49.7452 47.5533C50.3986 46.8892 50.7656 45.9886 50.7656 45.0495V20.1131C50.7588 18.1486 49.1899 16.5597 47.2569 16.5597Z" fill="#A9E2FF"/>
<path fill-rule="evenodd" clip-rule="evenodd" d="M42.9441 16.5687H55.2188V36.1423C55.2188 38.0997 53.6616 39.6885 51.7364 39.6954H7.93547C6.01504 39.6885 4.4599 38.1074 4.45312 36.1548V16.5687H42.87" fill="white"/>
<path d="M42.9441 16.5687H55.2188V36.1423C55.2188 38.0997 53.6616 39.6885 51.7364 39.6954H7.93547C6.01504 39.6885 4.4599 38.1074 4.45312 36.1548V16.5687H42.87" stroke="#00B487" stroke-linecap="round" stroke-linejoin="round"/>
<path fill-rule="evenodd" clip-rule="evenodd" d="M4.45312 14.7898V4.09711C4.45993 2.14048 6.02256 0.557983 7.94781 0.557983H27.1995L30.6942 7.67389H51.687C52.6193 7.66721 53.5158 8.03805 54.1785 8.70448C54.8412 9.37091 55.2155 10.2781 55.2188 11.2256V14.7898H4.45312Z" fill="white" stroke="#00B487" stroke-linecap="round" stroke-linejoin="round"/>
<path fill-rule="evenodd" clip-rule="evenodd" d="M32.9531 16.5687V29.911L36.5093 25.8727L40.0781 29.911V16.5687H32.9531Z" fill="#00B487"/>
</svg>
